<mxfile host="app.diagrams.net" agent="Mozilla/5.0 (Windows NT 10.0; Win64; x64) AppleWebKit/537.36 (KHTML, like Gecko) Chrome/133.0.0.0 Safari/537.36" version="26.1.0">
  <diagram id="C5RBs43oDa-KdzZeNtuy" name="Page-1">
    <mxGraphModel dx="1500" dy="746" grid="0" gridSize="10" guides="1" tooltips="1" connect="1" arrows="1" fold="1" page="1" pageScale="1" pageWidth="827" pageHeight="1169" math="0" shadow="0" adaptiveColors="auto">
      <root>
        <mxCell id="WIyWlLk6GJQsqaUBKTNV-0" />
        <mxCell id="WIyWlLk6GJQsqaUBKTNV-1" parent="WIyWlLk6GJQsqaUBKTNV-0" />
        <mxCell id="WIyWlLk6GJQsqaUBKTNV-3" value="Data Collection" style="rounded=1;whiteSpace=wrap;html=1;fontSize=12;glass=0;strokeWidth=1;shadow=0;labelBackgroundColor=none;fillColor=#09555B;strokeColor=#BAC8D3;fontColor=#EEEEEE;" parent="WIyWlLk6GJQsqaUBKTNV-1" vertex="1">
          <mxGeometry x="340" y="40" width="160" height="40" as="geometry" />
        </mxCell>
        <mxCell id="wCpzHfaGyNC5uQAKr4O_-7" value="" style="edgeStyle=orthogonalEdgeStyle;rounded=0;orthogonalLoop=1;jettySize=auto;html=1;labelBackgroundColor=none;strokeColor=#0B4D6A;fontColor=default;" edge="1" parent="WIyWlLk6GJQsqaUBKTNV-1" source="wCpzHfaGyNC5uQAKr4O_-4" target="wCpzHfaGyNC5uQAKr4O_-6">
          <mxGeometry relative="1" as="geometry" />
        </mxCell>
        <mxCell id="wCpzHfaGyNC5uQAKr4O_-4" value="Data Preparation" style="rounded=1;whiteSpace=wrap;html=1;labelBackgroundColor=none;fillColor=#09555B;strokeColor=#BAC8D3;fontColor=#EEEEEE;" vertex="1" parent="WIyWlLk6GJQsqaUBKTNV-1">
          <mxGeometry x="340" y="120" width="160" height="40" as="geometry" />
        </mxCell>
        <mxCell id="wCpzHfaGyNC5uQAKr4O_-10" value="" style="edgeStyle=orthogonalEdgeStyle;rounded=0;orthogonalLoop=1;jettySize=auto;html=1;entryX=0;entryY=0.5;entryDx=0;entryDy=0;labelBackgroundColor=none;strokeColor=#0B4D6A;fontColor=default;" edge="1" parent="WIyWlLk6GJQsqaUBKTNV-1" source="wCpzHfaGyNC5uQAKr4O_-6" target="wCpzHfaGyNC5uQAKr4O_-14">
          <mxGeometry relative="1" as="geometry">
            <mxPoint x="80" y="340" as="targetPoint" />
            <Array as="points">
              <mxPoint x="40" y="220" />
              <mxPoint x="40" y="300" />
            </Array>
          </mxGeometry>
        </mxCell>
        <mxCell id="wCpzHfaGyNC5uQAKr4O_-6" value="Normalization" style="rounded=1;whiteSpace=wrap;html=1;labelBackgroundColor=none;fillColor=#09555B;strokeColor=#BAC8D3;fontColor=#EEEEEE;" vertex="1" parent="WIyWlLk6GJQsqaUBKTNV-1">
          <mxGeometry x="340" y="200" width="160" height="40" as="geometry" />
        </mxCell>
        <mxCell id="wCpzHfaGyNC5uQAKr4O_-26" value="" style="edgeStyle=orthogonalEdgeStyle;rounded=0;orthogonalLoop=1;jettySize=auto;html=1;labelBackgroundColor=none;strokeColor=#0B4D6A;fontColor=default;" edge="1" parent="WIyWlLk6GJQsqaUBKTNV-1" source="wCpzHfaGyNC5uQAKr4O_-14" target="wCpzHfaGyNC5uQAKr4O_-25">
          <mxGeometry relative="1" as="geometry" />
        </mxCell>
        <mxCell id="wCpzHfaGyNC5uQAKr4O_-14" value="A" style="ellipse;whiteSpace=wrap;html=1;aspect=fixed;labelBackgroundColor=none;fillColor=#09555B;strokeColor=#BAC8D3;fontColor=#EEEEEE;" vertex="1" parent="WIyWlLk6GJQsqaUBKTNV-1">
          <mxGeometry x="80" y="280" width="40" height="40" as="geometry" />
        </mxCell>
        <mxCell id="wCpzHfaGyNC5uQAKr4O_-15" value="" style="endArrow=classic;html=1;rounded=0;labelBackgroundColor=none;strokeColor=#0B4D6A;fontColor=default;" edge="1" parent="WIyWlLk6GJQsqaUBKTNV-1">
          <mxGeometry width="50" height="50" relative="1" as="geometry">
            <mxPoint x="40" y="260" as="sourcePoint" />
            <mxPoint x="80" y="380" as="targetPoint" />
            <Array as="points">
              <mxPoint x="40" y="380" />
            </Array>
          </mxGeometry>
        </mxCell>
        <mxCell id="wCpzHfaGyNC5uQAKr4O_-28" value="" style="edgeStyle=orthogonalEdgeStyle;rounded=0;orthogonalLoop=1;jettySize=auto;html=1;labelBackgroundColor=none;strokeColor=#0B4D6A;fontColor=default;" edge="1" parent="WIyWlLk6GJQsqaUBKTNV-1" source="wCpzHfaGyNC5uQAKr4O_-16" target="wCpzHfaGyNC5uQAKr4O_-27">
          <mxGeometry relative="1" as="geometry" />
        </mxCell>
        <mxCell id="wCpzHfaGyNC5uQAKr4O_-16" value="B" style="ellipse;whiteSpace=wrap;html=1;aspect=fixed;labelBackgroundColor=none;fillColor=#09555B;strokeColor=#BAC8D3;fontColor=#EEEEEE;" vertex="1" parent="WIyWlLk6GJQsqaUBKTNV-1">
          <mxGeometry x="80" y="360" width="40" height="40" as="geometry" />
        </mxCell>
        <mxCell id="wCpzHfaGyNC5uQAKr4O_-30" value="" style="edgeStyle=orthogonalEdgeStyle;rounded=0;orthogonalLoop=1;jettySize=auto;html=1;labelBackgroundColor=none;strokeColor=#0B4D6A;fontColor=default;" edge="1" parent="WIyWlLk6GJQsqaUBKTNV-1" source="wCpzHfaGyNC5uQAKr4O_-17" target="wCpzHfaGyNC5uQAKr4O_-29">
          <mxGeometry relative="1" as="geometry" />
        </mxCell>
        <mxCell id="wCpzHfaGyNC5uQAKr4O_-17" value="C" style="ellipse;whiteSpace=wrap;html=1;aspect=fixed;labelBackgroundColor=none;fillColor=#09555B;strokeColor=#BAC8D3;fontColor=#EEEEEE;" vertex="1" parent="WIyWlLk6GJQsqaUBKTNV-1">
          <mxGeometry x="80" y="440" width="40" height="40" as="geometry" />
        </mxCell>
        <mxCell id="wCpzHfaGyNC5uQAKr4O_-22" value="" style="endArrow=classic;html=1;rounded=0;entryX=0;entryY=0.5;entryDx=0;entryDy=0;labelBackgroundColor=none;strokeColor=#0B4D6A;fontColor=default;" edge="1" parent="WIyWlLk6GJQsqaUBKTNV-1" target="wCpzHfaGyNC5uQAKr4O_-17">
          <mxGeometry width="50" height="50" relative="1" as="geometry">
            <mxPoint x="40" y="380" as="sourcePoint" />
            <mxPoint x="50" y="430" as="targetPoint" />
            <Array as="points">
              <mxPoint x="40" y="460" />
            </Array>
          </mxGeometry>
        </mxCell>
        <mxCell id="wCpzHfaGyNC5uQAKr4O_-32" value="" style="edgeStyle=orthogonalEdgeStyle;rounded=0;orthogonalLoop=1;jettySize=auto;html=1;labelBackgroundColor=none;strokeColor=#0B4D6A;fontColor=default;" edge="1" parent="WIyWlLk6GJQsqaUBKTNV-1" source="wCpzHfaGyNC5uQAKr4O_-23" target="wCpzHfaGyNC5uQAKr4O_-31">
          <mxGeometry relative="1" as="geometry" />
        </mxCell>
        <mxCell id="wCpzHfaGyNC5uQAKr4O_-23" value="D" style="ellipse;whiteSpace=wrap;html=1;aspect=fixed;labelBackgroundColor=none;fillColor=#09555B;strokeColor=#BAC8D3;fontColor=#EEEEEE;" vertex="1" parent="WIyWlLk6GJQsqaUBKTNV-1">
          <mxGeometry x="80" y="520" width="40" height="40" as="geometry" />
        </mxCell>
        <mxCell id="wCpzHfaGyNC5uQAKr4O_-24" value="" style="endArrow=classic;html=1;rounded=0;entryX=0;entryY=0.5;entryDx=0;entryDy=0;labelBackgroundColor=none;strokeColor=#0B4D6A;fontColor=default;" edge="1" parent="WIyWlLk6GJQsqaUBKTNV-1" target="wCpzHfaGyNC5uQAKr4O_-23">
          <mxGeometry width="50" height="50" relative="1" as="geometry">
            <mxPoint x="40" y="460" as="sourcePoint" />
            <mxPoint x="50" y="500" as="targetPoint" />
            <Array as="points">
              <mxPoint x="40" y="540" />
            </Array>
          </mxGeometry>
        </mxCell>
        <mxCell id="wCpzHfaGyNC5uQAKr4O_-40" value="" style="edgeStyle=orthogonalEdgeStyle;rounded=0;orthogonalLoop=1;jettySize=auto;html=1;labelBackgroundColor=none;strokeColor=#0B4D6A;fontColor=default;" edge="1" parent="WIyWlLk6GJQsqaUBKTNV-1" source="wCpzHfaGyNC5uQAKr4O_-25" target="wCpzHfaGyNC5uQAKr4O_-39">
          <mxGeometry relative="1" as="geometry" />
        </mxCell>
        <mxCell id="wCpzHfaGyNC5uQAKr4O_-25" value="DOS, DDOS Attack" style="whiteSpace=wrap;html=1;labelBackgroundColor=none;fillColor=#09555B;strokeColor=#BAC8D3;fontColor=#EEEEEE;" vertex="1" parent="WIyWlLk6GJQsqaUBKTNV-1">
          <mxGeometry x="160" y="280" width="120" height="40" as="geometry" />
        </mxCell>
        <mxCell id="wCpzHfaGyNC5uQAKr4O_-42" value="" style="edgeStyle=orthogonalEdgeStyle;rounded=0;orthogonalLoop=1;jettySize=auto;html=1;labelBackgroundColor=none;strokeColor=#0B4D6A;fontColor=default;" edge="1" parent="WIyWlLk6GJQsqaUBKTNV-1" source="wCpzHfaGyNC5uQAKr4O_-27" target="wCpzHfaGyNC5uQAKr4O_-41">
          <mxGeometry relative="1" as="geometry" />
        </mxCell>
        <mxCell id="wCpzHfaGyNC5uQAKr4O_-27" value="Port Scanning Attack" style="whiteSpace=wrap;html=1;labelBackgroundColor=none;fillColor=#09555B;strokeColor=#BAC8D3;fontColor=#EEEEEE;" vertex="1" parent="WIyWlLk6GJQsqaUBKTNV-1">
          <mxGeometry x="160" y="360" width="120" height="40" as="geometry" />
        </mxCell>
        <mxCell id="wCpzHfaGyNC5uQAKr4O_-44" value="" style="edgeStyle=orthogonalEdgeStyle;rounded=0;orthogonalLoop=1;jettySize=auto;html=1;labelBackgroundColor=none;strokeColor=#0B4D6A;fontColor=default;" edge="1" parent="WIyWlLk6GJQsqaUBKTNV-1" source="wCpzHfaGyNC5uQAKr4O_-29" target="wCpzHfaGyNC5uQAKr4O_-43">
          <mxGeometry relative="1" as="geometry" />
        </mxCell>
        <mxCell id="wCpzHfaGyNC5uQAKr4O_-29" value="Web Based Attack" style="whiteSpace=wrap;html=1;labelBackgroundColor=none;fillColor=#09555B;strokeColor=#BAC8D3;fontColor=#EEEEEE;" vertex="1" parent="WIyWlLk6GJQsqaUBKTNV-1">
          <mxGeometry x="160" y="440" width="120" height="40" as="geometry" />
        </mxCell>
        <mxCell id="wCpzHfaGyNC5uQAKr4O_-46" value="" style="edgeStyle=orthogonalEdgeStyle;rounded=0;orthogonalLoop=1;jettySize=auto;html=1;labelBackgroundColor=none;strokeColor=#0B4D6A;fontColor=default;" edge="1" parent="WIyWlLk6GJQsqaUBKTNV-1" source="wCpzHfaGyNC5uQAKr4O_-31" target="wCpzHfaGyNC5uQAKr4O_-45">
          <mxGeometry relative="1" as="geometry" />
        </mxCell>
        <mxCell id="wCpzHfaGyNC5uQAKr4O_-31" value="Access Attack" style="whiteSpace=wrap;html=1;labelBackgroundColor=none;fillColor=#09555B;strokeColor=#BAC8D3;fontColor=#EEEEEE;" vertex="1" parent="WIyWlLk6GJQsqaUBKTNV-1">
          <mxGeometry x="160" y="520" width="120" height="40" as="geometry" />
        </mxCell>
        <mxCell id="wCpzHfaGyNC5uQAKr4O_-33" value="" style="endArrow=classic;html=1;rounded=0;exitX=0.5;exitY=1;exitDx=0;exitDy=0;entryX=0.5;entryY=0;entryDx=0;entryDy=0;labelBackgroundColor=none;strokeColor=#0B4D6A;fontColor=default;" edge="1" parent="WIyWlLk6GJQsqaUBKTNV-1" source="WIyWlLk6GJQsqaUBKTNV-3" target="wCpzHfaGyNC5uQAKr4O_-4">
          <mxGeometry width="50" height="50" relative="1" as="geometry">
            <mxPoint x="460" y="120" as="sourcePoint" />
            <mxPoint x="510" y="70" as="targetPoint" />
          </mxGeometry>
        </mxCell>
        <mxCell id="wCpzHfaGyNC5uQAKr4O_-57" value="" style="edgeStyle=orthogonalEdgeStyle;rounded=0;orthogonalLoop=1;jettySize=auto;html=1;labelBackgroundColor=none;strokeColor=#0B4D6A;fontColor=default;" edge="1" parent="WIyWlLk6GJQsqaUBKTNV-1" source="wCpzHfaGyNC5uQAKr4O_-39" target="wCpzHfaGyNC5uQAKr4O_-56">
          <mxGeometry relative="1" as="geometry" />
        </mxCell>
        <mxCell id="wCpzHfaGyNC5uQAKr4O_-39" value="BI - LSTM Model" style="whiteSpace=wrap;html=1;labelBackgroundColor=none;fillColor=#09555B;strokeColor=#BAC8D3;fontColor=#EEEEEE;" vertex="1" parent="WIyWlLk6GJQsqaUBKTNV-1">
          <mxGeometry x="360" y="280" width="120" height="40" as="geometry" />
        </mxCell>
        <mxCell id="wCpzHfaGyNC5uQAKr4O_-59" value="" style="edgeStyle=orthogonalEdgeStyle;rounded=0;orthogonalLoop=1;jettySize=auto;html=1;labelBackgroundColor=none;strokeColor=#0B4D6A;fontColor=default;" edge="1" parent="WIyWlLk6GJQsqaUBKTNV-1" source="wCpzHfaGyNC5uQAKr4O_-41" target="wCpzHfaGyNC5uQAKr4O_-58">
          <mxGeometry relative="1" as="geometry" />
        </mxCell>
        <mxCell id="wCpzHfaGyNC5uQAKr4O_-41" value="LSTM Model" style="whiteSpace=wrap;html=1;labelBackgroundColor=none;fillColor=#09555B;strokeColor=#BAC8D3;fontColor=#EEEEEE;" vertex="1" parent="WIyWlLk6GJQsqaUBKTNV-1">
          <mxGeometry x="360" y="360" width="120" height="40" as="geometry" />
        </mxCell>
        <mxCell id="wCpzHfaGyNC5uQAKr4O_-61" value="" style="edgeStyle=orthogonalEdgeStyle;rounded=0;orthogonalLoop=1;jettySize=auto;html=1;labelBackgroundColor=none;strokeColor=#0B4D6A;fontColor=default;" edge="1" parent="WIyWlLk6GJQsqaUBKTNV-1" source="wCpzHfaGyNC5uQAKr4O_-43" target="wCpzHfaGyNC5uQAKr4O_-60">
          <mxGeometry relative="1" as="geometry" />
        </mxCell>
        <mxCell id="wCpzHfaGyNC5uQAKr4O_-43" value="CNN - LSTM Model" style="whiteSpace=wrap;html=1;labelBackgroundColor=none;fillColor=#09555B;strokeColor=#BAC8D3;fontColor=#EEEEEE;" vertex="1" parent="WIyWlLk6GJQsqaUBKTNV-1">
          <mxGeometry x="360" y="440" width="120" height="40" as="geometry" />
        </mxCell>
        <mxCell id="wCpzHfaGyNC5uQAKr4O_-63" value="" style="edgeStyle=orthogonalEdgeStyle;rounded=0;orthogonalLoop=1;jettySize=auto;html=1;labelBackgroundColor=none;strokeColor=#0B4D6A;fontColor=default;" edge="1" parent="WIyWlLk6GJQsqaUBKTNV-1" source="wCpzHfaGyNC5uQAKr4O_-45" target="wCpzHfaGyNC5uQAKr4O_-62">
          <mxGeometry relative="1" as="geometry" />
        </mxCell>
        <mxCell id="wCpzHfaGyNC5uQAKr4O_-45" value="CNN - LSTM Model" style="whiteSpace=wrap;html=1;labelBackgroundColor=none;fillColor=#09555B;strokeColor=#BAC8D3;fontColor=#EEEEEE;" vertex="1" parent="WIyWlLk6GJQsqaUBKTNV-1">
          <mxGeometry x="360" y="520" width="120" height="40" as="geometry" />
        </mxCell>
        <mxCell id="wCpzHfaGyNC5uQAKr4O_-56" value="BI- Directional&lt;div&gt;Temporal Features&lt;/div&gt;" style="rounded=1;whiteSpace=wrap;html=1;labelBackgroundColor=none;fillColor=#09555B;strokeColor=#BAC8D3;fontColor=#EEEEEE;" vertex="1" parent="WIyWlLk6GJQsqaUBKTNV-1">
          <mxGeometry x="560" y="280" width="120" height="40" as="geometry" />
        </mxCell>
        <mxCell id="wCpzHfaGyNC5uQAKr4O_-58" value="Temporal Features" style="rounded=1;whiteSpace=wrap;html=1;labelBackgroundColor=none;fillColor=#09555B;strokeColor=#BAC8D3;fontColor=#EEEEEE;" vertex="1" parent="WIyWlLk6GJQsqaUBKTNV-1">
          <mxGeometry x="560" y="360" width="120" height="40" as="geometry" />
        </mxCell>
        <mxCell id="wCpzHfaGyNC5uQAKr4O_-60" value="Spatio Temporal&lt;div&gt;Features&lt;/div&gt;" style="rounded=1;whiteSpace=wrap;html=1;labelBackgroundColor=none;fillColor=#09555B;strokeColor=#BAC8D3;fontColor=#EEEEEE;" vertex="1" parent="WIyWlLk6GJQsqaUBKTNV-1">
          <mxGeometry x="560" y="440" width="120" height="40" as="geometry" />
        </mxCell>
        <mxCell id="wCpzHfaGyNC5uQAKr4O_-62" value="Spatio Temporal Features" style="rounded=1;whiteSpace=wrap;html=1;labelBackgroundColor=none;fillColor=#09555B;strokeColor=#BAC8D3;fontColor=#EEEEEE;" vertex="1" parent="WIyWlLk6GJQsqaUBKTNV-1">
          <mxGeometry x="560" y="520" width="120" height="40" as="geometry" />
        </mxCell>
        <mxCell id="wCpzHfaGyNC5uQAKr4O_-64" value="" style="endArrow=classic;html=1;rounded=0;exitX=1;exitY=0.5;exitDx=0;exitDy=0;labelBackgroundColor=none;strokeColor=#0B4D6A;fontColor=default;" edge="1" parent="WIyWlLk6GJQsqaUBKTNV-1" source="wCpzHfaGyNC5uQAKr4O_-56">
          <mxGeometry width="50" height="50" relative="1" as="geometry">
            <mxPoint x="680" y="260" as="sourcePoint" />
            <mxPoint x="420" y="640" as="targetPoint" />
            <Array as="points">
              <mxPoint x="760" y="300" />
              <mxPoint x="760" y="600" />
              <mxPoint x="420" y="600" />
            </Array>
          </mxGeometry>
        </mxCell>
        <mxCell id="wCpzHfaGyNC5uQAKr4O_-65" value="" style="endArrow=none;html=1;rounded=0;exitX=1;exitY=0.5;exitDx=0;exitDy=0;labelBackgroundColor=none;strokeColor=#0B4D6A;fontColor=default;" edge="1" parent="WIyWlLk6GJQsqaUBKTNV-1" source="wCpzHfaGyNC5uQAKr4O_-58">
          <mxGeometry width="50" height="50" relative="1" as="geometry">
            <mxPoint x="750" y="410" as="sourcePoint" />
            <mxPoint x="760" y="380" as="targetPoint" />
          </mxGeometry>
        </mxCell>
        <mxCell id="wCpzHfaGyNC5uQAKr4O_-66" value="" style="endArrow=none;html=1;rounded=0;exitX=1;exitY=0.5;exitDx=0;exitDy=0;labelBackgroundColor=none;strokeColor=#0B4D6A;fontColor=default;" edge="1" parent="WIyWlLk6GJQsqaUBKTNV-1" source="wCpzHfaGyNC5uQAKr4O_-60">
          <mxGeometry width="50" height="50" relative="1" as="geometry">
            <mxPoint x="690" y="460" as="sourcePoint" />
            <mxPoint x="760" y="460" as="targetPoint" />
          </mxGeometry>
        </mxCell>
        <mxCell id="wCpzHfaGyNC5uQAKr4O_-67" value="" style="endArrow=none;html=1;rounded=0;exitX=1;exitY=0.5;exitDx=0;exitDy=0;labelBackgroundColor=none;strokeColor=#0B4D6A;fontColor=default;" edge="1" parent="WIyWlLk6GJQsqaUBKTNV-1" source="wCpzHfaGyNC5uQAKr4O_-62">
          <mxGeometry width="50" height="50" relative="1" as="geometry">
            <mxPoint x="690" y="580" as="sourcePoint" />
            <mxPoint x="760" y="540" as="targetPoint" />
          </mxGeometry>
        </mxCell>
        <mxCell id="wCpzHfaGyNC5uQAKr4O_-70" value="" style="edgeStyle=orthogonalEdgeStyle;rounded=0;orthogonalLoop=1;jettySize=auto;html=1;labelBackgroundColor=none;strokeColor=#0B4D6A;fontColor=default;" edge="1" parent="WIyWlLk6GJQsqaUBKTNV-1" source="wCpzHfaGyNC5uQAKr4O_-68" target="wCpzHfaGyNC5uQAKr4O_-69">
          <mxGeometry relative="1" as="geometry" />
        </mxCell>
        <mxCell id="wCpzHfaGyNC5uQAKr4O_-68" value="The Four Outputs (or) Trained Models will be stored as the Tensor Flow Models" style="rounded=0;whiteSpace=wrap;html=1;labelBackgroundColor=none;fillColor=#09555B;strokeColor=#BAC8D3;fontColor=#EEEEEE;" vertex="1" parent="WIyWlLk6GJQsqaUBKTNV-1">
          <mxGeometry x="240" y="640" width="360" height="40" as="geometry" />
        </mxCell>
        <mxCell id="wCpzHfaGyNC5uQAKr4O_-69" value="Tensor Flow Models will be Implemented in the Real Time&amp;nbsp;&lt;div&gt;Deepnet Guardian Framework&lt;/div&gt;" style="rounded=0;whiteSpace=wrap;html=1;labelBackgroundColor=none;fillColor=#09555B;strokeColor=#BAC8D3;fontColor=#EEEEEE;" vertex="1" parent="WIyWlLk6GJQsqaUBKTNV-1">
          <mxGeometry x="240" y="720" width="360" height="40" as="geometry" />
        </mxCell>
      </root>
    </mxGraphModel>
  </diagram>
</mxfile>
